<svg xmlns="http://www.w3.org/2000/svg" viewBox="0 0 100 100" style="enable-background:new 0 0 100 100"
  xml:space="preserve">
  <path
    d="m43.344 78.398-4.391 13.903A.998.998 0 0 1 38 93H20c-.318 0-.618-.152-.807-.409s-.243-.588-.146-.892l7.094-22.464c.241.562.461 1.192.678 1.815.735 2.114 1.568 4.509 3.676 5.729 2.079 1.203 4.552.734 6.731.323 1.377-.261 2.8-.529 3.713-.285.697.185 1.548.852 2.405 1.581zm30.515-9.164a28.383 28.383 0 0 0-.679 1.817c-.735 2.113-1.568 4.509-3.675 5.728-2.079 1.203-4.552.736-6.731.323-1.379-.261-2.802-.527-3.713-.286-.697.187-1.548.853-2.405 1.582l4.39 13.903A1 1 0 0 0 62 93h18c.318 0 .618-.152.807-.409s.243-.588.146-.892l-7.094-22.465zM71 43c0 11.579-9.421 21-21 21s-21-9.421-21-21 9.421-21 21-21 21 9.421 21 21zm-8.052-4.15a1.002 1.002 0 0 0-.797-.671l-7.765-1.187-3.481-7.417a1.001 1.001 0 0 0-1.81 0l-3.481 7.417-7.765 1.187a1 1 0 0 0-.565 1.687l5.619 5.759-1.878 8.151a.998.998 0 0 0 1.43 1.115L50 51.024l7.544 3.865a.991.991 0 0 0 1.07-.1c.307-.239.447-.635.36-1.014l-1.878-8.151 5.619-5.759a.996.996 0 0 0 .233-1.015zm17.003 12.181c-.479 1.79-.124 3.669.22 5.487.283 1.495.604 3.191.145 3.984-.475.82-2.124 1.395-3.58 1.9-1.73.602-3.521 1.224-4.813 2.516-1.296 1.297-1.918 3.087-2.52 4.818-.507 1.456-1.08 3.104-1.899 3.579-.1.057-.399.23-1.176.23-.825 0-1.833-.19-2.808-.375-1.118-.212-2.383-.451-3.599-.451-.688 0-1.305.075-1.883.228-1.737.466-3.151 1.688-4.519 2.871C52.278 76.892 50.997 78 50 78c-.999 0-2.28-1.108-3.52-2.182-1.368-1.183-2.783-2.406-4.512-2.867a7.269 7.269 0 0 0-1.895-.23c-1.212 0-2.477.239-3.593.451-.98.185-1.988.375-2.812.375-.774 0-1.074-.174-1.172-.23-.821-.476-1.396-2.125-1.901-3.581-.602-1.73-1.224-3.521-2.516-4.813-1.297-1.296-3.087-1.918-4.818-2.52-1.456-.507-3.104-1.08-3.579-1.899-.458-.793-.138-2.487.145-3.983.345-1.828.698-3.702.221-5.489-.463-1.729-1.686-3.144-2.868-4.511C16.108 45.278 15 43.997 15 43c0-.999 1.108-2.28 2.182-3.52 1.183-1.368 2.406-2.783 2.867-4.512.479-1.79.124-3.669-.22-5.487-.283-1.495-.604-3.191-.145-3.984.475-.82 2.124-1.395 3.58-1.9 1.73-.602 3.521-1.224 4.813-2.516 1.296-1.297 1.918-3.087 2.52-4.818.507-1.456 1.08-3.104 1.899-3.579.1-.057.4-.231 1.177-.231.827 0 1.833.191 2.806.376 1.116.211 2.378.45 3.6.45a7.26 7.26 0 0 0 1.874-.225c1.746-.468 3.16-1.69 4.527-2.873C47.722 9.108 49.003 8 50 8c.999 0 2.28 1.108 3.52 2.182 1.368 1.183 2.783 2.406 4.512 2.867.579.154 1.198.23 1.892.23 1.207 0 2.475-.239 3.593-.45.979-.186 1.989-.376 2.813-.376.774 0 1.075.174 1.173.23.821.476 1.396 2.125 1.901 3.581.602 1.73 1.224 3.521 2.516 4.813 1.297 1.296 3.087 1.918 4.818 2.52 1.456.507 3.104 1.08 3.579 1.899.458.793.138 2.487-.145 3.983-.345 1.828-.698 3.702-.221 5.489.463 1.729 1.686 3.144 2.868 4.511C83.892 40.722 85 42.003 85 43c0 .999-1.108 2.28-2.182 3.52-1.182 1.368-2.406 2.783-2.867 4.511zM75 43c0-13.785-11.215-25-25-25S25 29.215 25 43s11.215 25 25 25 25-11.215 25-25z" />
</svg>