<svg xmlns="http://www.w3.org/2000/svg" viewBox="0 0 12 14" width="512" height="512">
  <path
    d="M8.074 6.33 7.06 5.317 8.787 3.59l.056-.087.645-1.673-1.675.643-.087.057L6 4.257 4.273 2.53l-.087-.057-1.673-.644.643 1.674.056.087L4.94 5.317 3.926 6.33l-.35-.35a.253.253 0 0 0-.357-.003.256.256 0 0 0 .004.357l.35.35L2.507 7.75a.75.75 0 0 0 1.06 1.06l1.066-1.065.35.349c.1.1.26.102.357.004a.256.256 0 0 0-.004-.358l-.35-.349L6 6.378 7.013 7.39l-.35.35c-.1.1-.101.26-.003.357a.256.256 0 0 0 .357-.004l.35-.35 1.066 1.066a.75.75 0 0 0 1.06-1.06L8.427 6.683l.35-.35c.1-.1.102-.26.004-.357a.256.256 0 0 0-.358.004l-.35.35ZM12 4h-1v.5c0 .268.22.5.49.5H12v1c0 3.314-2.545 6.848-5.694 7.898L6 14l-.306-.102C2.55 12.85 0 9.307 0 6V5h.51C.785 5 1 4.776 1 4.5V4H0V1h1V0h10v1h1v3Z"
    fill-rule="evenodd" />
</svg>