<svg xmlns="http://www.w3.org/2000/svg" viewBox="0 0 96 96" style="enable-background:new 0 0 96 96"
  xml:space="preserve">
  <path
    d="M2.784 52.812h8.918v12.403H2.784V52.812zm57.827 28.365c.264 0 .521.034.765.099l5.408-5.408a1.506 1.506 0 1 1 2.131 2.131l-5.408 5.408a2.995 2.995 0 1 1-2.896-2.23zm1.507-29.575a32.425 32.425 0 0 1 13.481 3.607l-6.838 11.843a18.844 18.844 0 0 0-6.643-1.778V51.602zm16.08 5.109-6.839 11.845a19.083 19.083 0 0 1 4.867 4.867l11.845-6.839a32.793 32.793 0 0 0-9.873-9.873zm11.375 12.472a32.466 32.466 0 0 1 3.643 14.988H79.567c0-2.918-.66-5.682-1.838-8.151l11.844-6.837zm-30.469-3.909a18.827 18.827 0 0 0-6.641 1.777l-6.838-11.843a32.425 32.425 0 0 1 13.478-3.606v13.672h.001zm-9.244 3.284-6.839-11.845a32.778 32.778 0 0 0-9.869 9.869l11.845 6.839a19.052 19.052 0 0 1 4.863-4.863zm-6.369 7.465a18.878 18.878 0 0 0-1.836 8.148H28.006a32.469 32.469 0 0 1 3.642-14.986l11.843 6.838zm2.757-64.2a1.505 1.505 0 1 1 .507-2.967l7.711 1.334a1.507 1.507 0 0 1 1.148 2.035l-2.689 7.312a1.505 1.505 0 0 1-2.826-1.036l1.268-3.448L6.095 41.19a1.504 1.504 0 1 1-1.507-2.603l45.275-26.139-3.615-.625zm14.363 14.488h8.918v23.367a35.668 35.668 0 0 0-8.918-1.126V26.311zm-19.276 8.834v19.07a35.458 35.458 0 0 1 8.918-4.131V35.145h-8.918zM22.06 43.979h8.918v21.236H22.06V43.979z"
    style="fill-rule:evenodd;clip-rule:evenodd" />
</svg>