<svg xmlns="http://www.w3.org/2000/svg" data-name="Layer 1" viewBox="0 0 64 64" x="0px" y="0px">
  <path
    d="M49,31H42a1,1,0,0,0-1,1v2a1,1,0,0,1-2,0V32a1,1,0,0,0-1-1H27V30a3,3,0,0,0-3-3,3,3,0,0,0-3,3v1H15a1,1,0,0,0-1,1A18,18,0,0,0,26,49v3H24a1,1,0,0,0-1,1v4a1,1,0,0,0,1,1h2.81a6,6,0,0,0,10.38,0H40a1,1,0,0,0,1-1V53a1,1,0,0,0-1-1H38V49A18,18,0,0,0,50,32,1,1,0,0,0,49,31ZM16,33h6a1,1,0,0,0,1-1V30a1,1,0,0,1,1-1,1,1,0,0,1,.71.31A.93.93,0,0,1,25,30v2a1,1,0,0,0,1,1h5v4H30a3,3,0,0,0,0,6h1v5A16,16,0,0,1,16,33ZM39,54v2H25V54Zm-6-6V42a1,1,0,0,0-1-1H30a1,1,0,0,1,0-2h2a1,1,0,0,0,1-1V33h4v1a3,3,0,0,0,6,0V33h5A16,16,0,0,1,33,48Z" />
  <path d="M44,3v7h2a2,2,0,0,1,2,2,2,2,0,0,1-2,2H44v6h6v2a2,2,0,0,0,4,0V20h7A17,17,0,0,0,44,3Z" />
  <path d="M10,18a2,2,0,0,1,2-2,2,2,0,0,1,2,2v2h6V14h2a2,2,0,0,0,2-2,2,2,0,0,0-2-2H20V3A17,17,0,0,0,3,20h7Z" />
  <path d="M24,20l3,6,3-6H28V6a1,1,0,0,0-1-1H22V7h4V20Z" />
  <path d="M42,7V5H37a1,1,0,0,0-1,1V20H34l3,6,3-6H38V7Z" />
</svg>