<svg xmlns="http://www.w3.org/2000/svg" viewBox="0 0 64 64">
  <defs>
    <style>
      .cls-1 {
        stroke-width: 0
      }
    </style>
  </defs>
  <path class="cls-1"
    d="M36 12.34V8h3c.55 0 1-.45 1-1V5c0-.55-.45-1-1-1H25c-.55 0-1 .45-1 1v2c0 .55.45 1 1 1h3v4.34C16.65 14.24 8 24.11 8 36c0 13.25 10.75 24 24 24s24-10.75 24-24c0-11.89-8.65-21.76-20-23.66Zm13.79 14.55-2.57 1.48c-.15.09-.33.13-.5.13a.99.99 0 0 1-.86-.5.998.998 0 0 1 .36-1.37l2.57-1.48c.36.56.69 1.14 1 1.74Zm-10.16-6.11 1.48-2.57c.6.31 1.18.64 1.74 1l-1.48 2.57c-.19.32-.53.5-.87.5-.17 0-.34-.05-.5-.14a.996.996 0 0 1-.37-1.36Zm3.22 32.01-1.48-2.57a.998.998 0 0 0-1.37-.36c-.48.27-.64.88-.37 1.36l1.49 2.58A19.719 19.719 0 0 1 33 55.97V51c0-.55-.45-1-1-1s-1 .45-1 1v4.97c-2.91-.14-5.67-.91-8.12-2.17l1.49-2.58a.996.996 0 0 0-.37-1.36.998.998 0 0 0-1.37.36l-1.48 2.57a19.793 19.793 0 0 1-5.94-5.94l2.57-1.48c.48-.28.64-.89.36-1.37a.999.999 0 0 0-1.36-.37l-2.58 1.49A19.832 19.832 0 0 1 12.03 37H17c.55 0 1-.45 1-1s-.45-1-1-1h-4.97c.14-2.91.91-5.67 2.17-8.12l2.58 1.49c.15.09.33.13.5.13.34 0 .68-.18.86-.5a.998.998 0 0 0-.36-1.37l-2.57-1.48c1.53-2.38 3.56-4.41 5.94-5.94l1.48 2.57c.19.32.53.5.87.5.17 0 .34-.05.5-.14.48-.27.64-.88.37-1.36l-1.49-2.58C25.61 16.79 28.71 16 32 16v15a5.002 5.002 0 0 1 4.34 7.49s0 .01-.01.01L49.31 46a19.997 19.997 0 0 1-6.46 6.79ZM47 37c-.55 0-1-.45-1-1s.45-1 1-1h4.95c.02.33.05.66.05 1s-.02.67-.03 1H47Z" />
  <path class="cls-1" d="M32 33c-1.66 0-3 1.34-3 3s1.34 3 3 3a2.996 2.996 0 0 0 3-3c0-1.66-1.34-3-3-3Z" />
</svg>